<svg xmlns="http://www.w3.org/2000/svg" viewBox="0 0 1647.7 57.8"><defs><style>.cls-1{fill:#fff;}.cls-2{fill:#ffc440;}.cls-3{fill:#56c356;}.cls-4{fill:#ff5168;}</style></defs><g id="Layer_2" data-name="Layer 2"><g id="search-bar"><path id="bg" class="cls-1" d="M10,0H1637.7a10,10,0,0,1,10,10V57.8a0,0,0,0,1,0,0H0a0,0,0,0,1,0,0V10A10,10,0,0,1,10,0Z"/><g id="dots"><path id="yellow" class="cls-2" d="M84.28,28.9a8.49,8.49,0,1,1,8.49,8.49A8.49,8.49,0,0,1,84.28,28.9Z"/><path id="green" class="cls-3" d="M58.39,28.9a8.5,8.5,0,1,1,8.49,8.49A8.49,8.49,0,0,1,58.39,28.9Z"/><path id="red" class="cls-4" d="M32.5,28.9A8.5,8.5,0,1,1,41,37.39,8.5,8.5,0,0,1,32.5,28.9Z"/></g></g></g></svg>